# xmcd
#
# Track frame offsets:
#	150
#	20671
#	34795
#	48974
#	67024
#	91195
#	109875
#	127399
#	145796
#	162975
#	182391
#	199526
#	212983
#	230072
#
# Disc length: 3317 seconds
#
# Revision: 3
# Processed by: cddbd v1.5.2PL0 Copyright (c) Steve Scherf et al.
# Submitted via: EZCDAudioConverter 8.0.2.1
#
DISCID=cb0cf30e
DTITLE=JOÃO PAULO and DANIEL - HOMENAGEM A JOÃO PAULO and DANIEL [CD 398425342-2) 
DTITLE=CHANTECLER
DYEAR=1998
DGENRE=SERTANEJO 
TTITLE0=ABERTURA (MARCOS BRASIL) - AO LADO DE DEUS (RICK and RENNER) 
TTITLE1=PEDE PRA VOLTAR (INÉDITA) 
TTITLE2=AMARGURADO (INÉDITA) 
TTITLE3=FIM DE SEMANA
TTITLE4=TE AMO CADA VEZ MAIS (TO LOVE YOU MORE)
TTITLE5=MINHA ESTRELA PERDIDA
TTITLE6=ACABOU
TTITLE7=ELA TEM O DOM DE ME FAZER CHORAR
TTITLE8=A CULPA É SUA
TTITLE9=MUDA
TTITLE10=TÔ FICANDO LOUCO
TTITLE11=SAUDADE DE MINHA TERRA (PART. ESP. CHITÃOZINHO and XORORÓ)
TTITLE12=ME AME SEM MEDO
TTITLE13=FRICOTE (PART. ESP. ART POPULAR) 
EXTD=
EXTT0=
EXTT1=
EXTT2=
EXTT3=
EXTT4=
EXTT5=
EXTT6=
EXTT7=
EXTT8=
EXTT9=
EXTT10=
EXTT11=
EXTT12=
EXTT13=
PLAYORDER=
